<svg width="23" height="24" viewBox="0 0 23 24" fill="none" xmlns="http://www.w3.org/2000/svg">
<path d="M17.25 8C17.25 6.4087 16.6442 4.88258 15.5659 3.75736C14.4875 2.63214 13.025 2 11.5 2C9.97501 2 8.51247 2.63214 7.43414 3.75736C6.3558 4.88258 5.75 6.4087 5.75 8C5.75 15 2.875 17 2.875 17H20.125C20.125 17 17.25 15 17.25 8Z" stroke="#111213" stroke-width="2" stroke-linecap="round" stroke-linejoin="round"/>
<path d="M13.1579 21C12.9894 21.3031 12.7476 21.5547 12.4567 21.7295C12.1657 21.9044 11.8358 21.9965 11.5 21.9965C11.1642 21.9965 10.8344 21.9044 10.5434 21.7295C10.2524 21.5547 10.0106 21.3031 9.8421 21" stroke="#111213" stroke-width="2" stroke-linecap="round" stroke-linejoin="round"/>
<circle cx="17" cy="4" r="4" fill="#F7703C"/>
</svg>
